<?xml version="1.0" encoding="UTF-8" standalone="no"?><!-- Generator: Gravit.io --><svg xmlns="http://www.w3.org/2000/svg" xmlns:xlink="http://www.w3.org/1999/xlink" style="isolation:isolate" viewBox="0 0 175 175" width="175pt" height="175pt"><defs><clipPath id="_clipPath_NqEcAQ1zE8H1VFU4vRTzMdtS2jgZjCiJ"><rect width="175" height="175"/></clipPath></defs><g clip-path="url(#_clipPath_NqEcAQ1zE8H1VFU4vRTzMdtS2jgZjCiJ)"><rect width="175" height="175" style="fill:rgb(0,0,0)" fill-opacity="0"/><g filter="url(#Y0SUXGqe6eqJ4T6vyTrQuF9GgxmjUsOu)"><path d=" M 118.492 8.185 C 148.597 20.432 169.84 49.992 169.84 84.475 C 169.84 129.92 132.945 166.815 87.5 166.815 C 57.718 166.815 31.607 150.969 17.16 127.246 C 26.725 131.149 37.19 133.296 48.152 133.296 C 93.596 133.296 130.492 96.401 130.492 50.956 C 130.492 35.294 126.109 20.647 118.492 8.185 Z " fill-rule="evenodd" fill="rgb(255,153,0)"/><path d=" M 56.508 8.185 C 26.403 20.432 5.16 49.992 5.16 84.475 C 5.16 129.92 42.055 166.815 87.5 166.815 C 117.282 166.815 143.393 150.969 157.84 127.246 C 148.275 131.149 137.81 133.296 126.848 133.296 C 81.404 133.296 44.508 96.401 44.508 50.956 C 44.508 35.294 48.891 20.647 56.508 8.185 Z " fill-rule="evenodd" fill="rgb(255,255,255)"/></g><defs><filter id="Y0SUXGqe6eqJ4T6vyTrQuF9GgxmjUsOu" x="-200%" y="-200%" width="400%" height="400%" filterUnits="objectBoundingBox" color-interpolation-filters="sRGB"><feGaussianBlur xmlns="http://www.w3.org/2000/svg" in="SourceGraphic" stdDeviation="2.146804531419514"/><feOffset xmlns="http://www.w3.org/2000/svg" dx="0" dy="3" result="pf_100_offsetBlur"/><feFlood xmlns="http://www.w3.org/2000/svg" flood-color="#000000" flood-opacity="0.65"/><feComposite xmlns="http://www.w3.org/2000/svg" in2="pf_100_offsetBlur" operator="in" result="pf_100_dropShadow"/><feBlend xmlns="http://www.w3.org/2000/svg" in="SourceGraphic" in2="pf_100_dropShadow" mode="normal"/></filter></defs></g></svg>