<?xml version="1.0" encoding="UTF-8" standalone="no"?><!-- Generator: Gravit.io --><svg xmlns="http://www.w3.org/2000/svg" xmlns:xlink="http://www.w3.org/1999/xlink" style="isolation:isolate" viewBox="0 0 800 800" width="800pt" height="800pt"><defs><clipPath id="_clipPath_fSk56UenDgfHNa6cr5zZtRc6xt1XvaCR"><rect width="800" height="800"/></clipPath></defs><g clip-path="url(#_clipPath_fSk56UenDgfHNa6cr5zZtRc6xt1XvaCR)"><path d=" M 0 696.848 C 0 753.823 46.183 800 103.152 800 L 696.848 800 C 753.823 800 800 753.817 800 696.848 L 800 103.152 C 800 46.177 753.817 0 696.848 0 L 103.152 0 C 46.177 0 0 46.183 0 103.152 L 0 696.848 Z " fill="rgb(144,19,254)"/><path d=" M 331.742 353.869 L 331.742 240.577 L 431.467 240.577 C 440.964 240.577 450.123 241.368 458.942 242.951 C 467.761 244.534 475.562 247.361 482.346 251.431 C 489.13 255.502 494.557 261.155 498.628 268.391 C 502.698 275.627 504.733 284.899 504.733 296.205 C 504.733 316.557 498.628 331.256 486.417 340.301 C 474.206 349.346 458.603 353.869 439.607 353.869 L 331.742 353.869 L 331.742 353.869 Z  M 225.234 157.813 L 225.234 642.188 L 459.959 642.188 C 481.668 642.188 502.811 639.474 523.389 634.047 C 543.967 628.62 562.284 620.253 578.339 608.946 C 594.395 597.639 607.171 583.054 616.669 565.19 C 626.166 547.325 630.915 526.182 630.915 501.759 C 630.915 471.458 623.566 445.566 608.867 424.083 C 594.169 402.6 571.895 387.563 542.045 378.97 C 563.754 368.568 580.148 355.226 591.229 338.944 C 602.31 322.663 607.85 302.311 607.85 277.889 C 607.85 255.275 604.119 236.28 596.656 220.903 C 589.194 205.526 578.679 193.202 565.111 183.931 C 551.543 174.659 535.261 167.988 516.266 163.918 C 497.271 159.848 476.241 157.813 453.175 157.813 L 225.234 157.813 L 225.234 157.813 Z  M 331.742 559.423 L 331.742 426.457 L 447.748 426.457 C 470.814 426.457 489.356 431.772 503.377 442.4 C 517.397 453.028 524.407 470.779 524.407 495.654 C 524.407 508.317 522.259 518.719 517.962 526.86 C 513.666 535.001 507.899 541.446 500.663 546.194 C 493.427 550.943 485.06 554.335 475.562 556.37 C 466.065 558.406 456.115 559.423 445.713 559.423 L 331.742 559.423 L 331.742 559.423 Z " fill="rgb(255,255,255)"/></g></svg>