<?xml version="1.0" encoding="UTF-8" standalone="no"?><!-- Generator: Gravit.io --><svg xmlns="http://www.w3.org/2000/svg" xmlns:xlink="http://www.w3.org/1999/xlink" style="isolation:isolate" viewBox="0 0 800 800" width="800pt" height="800pt"><defs><clipPath id="_clipPath_syT7B4BvYRBWo5yQI2KxcQCFPoJYW8sQ"><rect width="800" height="800"/></clipPath></defs><g clip-path="url(#_clipPath_syT7B4BvYRBWo5yQI2KxcQCFPoJYW8sQ)"><path d=" M 251.3 134.85 C 251.3 134.85 326.475 168.15 355.2 308.15 C 361.1 329.65 364.5 354.35 364.5 379.825 C 364.5 419.05 356.475 456.4 341.95 490.325 L 342.65 488.5 C 383.85 449.5 439.6 425.55 500.95 425.55 C 522.3 425.55 542.95 428.45 562.575 433.875 L 560.95 433.5 C 549.4 362 519.05 299.05 475.175 248.05 L 475.6 248.55 C 422.4 181.7 342.25 138.275 251.85 134.85 L 251.3 134.825 L 251.3 134.85 Z " fill="rgb(108,120,175)"/><path d=" M 195.775 133.7 C 234.55 189.175 259.675 256.8 264.95 329.925 L 265.025 331.2 C 265.85 340.8 266.3 351.95 266.3 363.225 C 266.3 410.55 258.15 455.975 243.15 498.15 L 244.025 495.325 C 266.675 468.425 299.4 450.625 336.325 447.775 L 336.775 447.75 C 338.325 447.625 339.875 447.55 341.4 447.5 C 343.475 432.425 344.65 415 344.65 397.3 C 344.65 339.9 332.2 285.4 309.875 236.375 L 310.875 238.8 C 289.25 188.825 247.975 150.825 197.075 134.05 L 195.75 133.675 L 195.775 133.7 Z " fill="rgb(153,162,204)"/><path d=" M 714.2 437.925 L 154.35 533.175 C 182.525 543.15 202.375 569.55 202.375 600.6 C 202.375 601.65 202.35 602.7 202.3 603.725 L 202.3 603.575 C 202.025 610.475 200.85 616.975 198.85 623.15 L 199 622.65 C 255.65 596.625 321.9 574.7 390.875 560.2 L 397.125 559.1 C 434.075 550.7 476.5 545.9 520.05 545.9 C 545.925 545.9 571.425 547.6 596.4 550.9 L 593.475 550.575 C 616.175 497.6 659.35 457.05 712.775 438.35 L 714.2 437.925 Z " fill="rgb(248,156,14)"/><path d=" M 520.1 565.325 C 445.775 566.375 374.9 579.65 308.9 603.175 L 313.475 601.75 C 223.875 632.25 221.275 643.875 140.075 634.325 C 97.125 627.75 58.45 615.575 22.625 598.425 L 25.125 599.5 C 67.525 633.65 119.75 657.3 176.9 665.75 L 178.625 665.95 C 239.725 662.225 296.325 646.325 347.15 620.65 L 344.675 621.775 C 400.05 602.425 463.875 591.225 530.325 591.225 C 533.75 591.225 537.15 591.25 540.55 591.325 L 540.05 591.325 C 625.975 596.725 706.175 610.4 783.225 631.675 L 774.925 629.725 C 730.15 608.35 677.7 589.9 623.075 577.05 L 617.675 575.975 C 589 569.225 556.075 565.35 522.25 565.35 C 521.5 565.35 520.75 565.35 520 565.35 L 520.125 565.35 L 520.1 565.325 Z " fill="rgb(86,99,160)"/></g></svg>