<?xml version="1.0" encoding="UTF-8" standalone="no"?><!-- Generator: Gravit.io --><svg xmlns="http://www.w3.org/2000/svg" xmlns:xlink="http://www.w3.org/1999/xlink" style="isolation:isolate" viewBox="0 0 800 800" width="800pt" height="800pt"><defs><clipPath id="_clipPath_9a61rJvXMd61oO16Dcd5HiwZ3e9uYjEg"><rect width="800" height="800"/></clipPath></defs><g clip-path="url(#_clipPath_9a61rJvXMd61oO16Dcd5HiwZ3e9uYjEg)"><path d=" M 405.933 0.067 C 297.809 -1.504 193.655 40.761 117.2 117.233 C -38.96 273.456 -38.96 526.677 117.2 682.9 C 273.423 839.06 526.644 839.06 682.867 682.9 C 839.027 526.677 839.027 273.456 682.867 117.233 C 609.312 43.66 509.99 1.633 405.967 0.067 L 405.933 0.067 Z  M 259 199.833 C 277.733 204.1 294 207.067 314.433 207.067 C 345.133 207.067 376.533 199.833 407.3 199.833 C 466.967 199.833 522.3 226.967 522.3 293.167 C 522.3 344.5 491.6 377.067 443.967 390.833 L 536.9 527.733 L 580.267 527.733 L 580.267 561.4 L 514.067 561.4 L 404.3 396.933 L 345.733 396.933 L 345.733 527.733 L 403 527.733 L 403 561.4 L 259 561.4 L 259 527.733 L 308.433 527.733 L 308.433 237.8 L 259 231.7 L 259 199.8 L 259 199.833 Z  M 407.867 233.567 C 388 233.567 367.433 235.333 345.733 237.8 L 345.733 364.4 L 377.1 365.067 C 453.7 366.2 483.2 336.733 483.2 297.533 C 483.2 251.667 449.967 233.567 407.867 233.567 Z " fill="rgb(117,170,219)"/></g></svg>